<mxfile host="app.diagrams.net" modified="2024-03-01T03:25:05.584Z" agent="Mozilla/5.0 (Windows NT 10.0; Win64; x64) AppleWebKit/537.36 (KHTML, like Gecko) Chrome/122.0.0.0 Safari/537.36" etag="pmDArCQ_YzF3n-Ka3_nO" version="24.0.0" type="device">
  <diagram name="Страница — 1" id="qqYoBsd46j4sXg_TSvLu">
    <mxGraphModel dx="794" dy="690" grid="1" gridSize="10" guides="1" tooltips="1" connect="1" arrows="1" fold="1" page="1" pageScale="1" pageWidth="827" pageHeight="1169" math="0" shadow="0">
      <root>
        <mxCell id="0" />
        <mxCell id="1" parent="0" />
        <mxCell id="IDwhgmk9ERiwzFjufu_X-10" value="" style="edgeStyle=orthogonalEdgeStyle;rounded=0;orthogonalLoop=1;jettySize=auto;html=1;entryX=0;entryY=0.5;entryDx=0;entryDy=0;" edge="1" parent="1" source="IDwhgmk9ERiwzFjufu_X-8" target="IDwhgmk9ERiwzFjufu_X-12">
          <mxGeometry relative="1" as="geometry">
            <mxPoint x="270" y="230" as="targetPoint" />
          </mxGeometry>
        </mxCell>
        <mxCell id="IDwhgmk9ERiwzFjufu_X-11" value="Регистрация поставщика" style="edgeLabel;html=1;align=center;verticalAlign=middle;resizable=0;points=[];" vertex="1" connectable="0" parent="IDwhgmk9ERiwzFjufu_X-10">
          <mxGeometry x="0.0222" y="-1" relative="1" as="geometry">
            <mxPoint as="offset" />
          </mxGeometry>
        </mxCell>
        <mxCell id="IDwhgmk9ERiwzFjufu_X-8" value="Поставщик" style="shape=umlActor;verticalLabelPosition=bottom;verticalAlign=top;html=1;outlineConnect=0;" vertex="1" parent="1">
          <mxGeometry x="40" y="200" width="30" height="60" as="geometry" />
        </mxCell>
        <mxCell id="IDwhgmk9ERiwzFjufu_X-15" value="" style="edgeStyle=orthogonalEdgeStyle;rounded=0;orthogonalLoop=1;jettySize=auto;html=1;" edge="1" parent="1" source="IDwhgmk9ERiwzFjufu_X-12" target="IDwhgmk9ERiwzFjufu_X-14">
          <mxGeometry relative="1" as="geometry" />
        </mxCell>
        <mxCell id="IDwhgmk9ERiwzFjufu_X-16" value="Регистрация даты поставок" style="edgeLabel;html=1;align=center;verticalAlign=middle;resizable=0;points=[];" vertex="1" connectable="0" parent="IDwhgmk9ERiwzFjufu_X-15">
          <mxGeometry x="-0.4" relative="1" as="geometry">
            <mxPoint as="offset" />
          </mxGeometry>
        </mxCell>
        <mxCell id="IDwhgmk9ERiwzFjufu_X-12" value="Отдел закупок" style="rounded=1;whiteSpace=wrap;html=1;" vertex="1" parent="1">
          <mxGeometry x="280" y="200" width="120" height="60" as="geometry" />
        </mxCell>
        <mxCell id="IDwhgmk9ERiwzFjufu_X-20" value="" style="edgeStyle=orthogonalEdgeStyle;rounded=0;orthogonalLoop=1;jettySize=auto;html=1;" edge="1" parent="1" source="IDwhgmk9ERiwzFjufu_X-14" target="IDwhgmk9ERiwzFjufu_X-17">
          <mxGeometry relative="1" as="geometry" />
        </mxCell>
        <mxCell id="IDwhgmk9ERiwzFjufu_X-21" value="Расчет стоимости" style="edgeLabel;html=1;align=center;verticalAlign=middle;resizable=0;points=[];" vertex="1" connectable="0" parent="IDwhgmk9ERiwzFjufu_X-20">
          <mxGeometry x="-0.1818" y="1" relative="1" as="geometry">
            <mxPoint x="15" y="1" as="offset" />
          </mxGeometry>
        </mxCell>
        <mxCell id="IDwhgmk9ERiwzFjufu_X-14" value="&lt;span style=&quot;color: rgb(8, 8, 8); font-family: &amp;quot;SB Sans Text&amp;quot;, Roboto, -apple-system, &amp;quot;Helvetica Neue&amp;quot;, Helvetica, Arial, sans-serif; font-size: 18px; letter-spacing: -0.304px; text-align: left; white-space-collapse: preserve; background-color: rgb(255, 255, 255);&quot;&gt;Учет поставок&lt;/span&gt;" style="rounded=1;whiteSpace=wrap;html=1;" vertex="1" parent="1">
          <mxGeometry x="280" y="80" width="120" height="60" as="geometry" />
        </mxCell>
        <mxCell id="IDwhgmk9ERiwzFjufu_X-23" value="" style="edgeStyle=orthogonalEdgeStyle;rounded=0;orthogonalLoop=1;jettySize=auto;html=1;" edge="1" parent="1" source="IDwhgmk9ERiwzFjufu_X-17" target="IDwhgmk9ERiwzFjufu_X-22">
          <mxGeometry relative="1" as="geometry" />
        </mxCell>
        <mxCell id="IDwhgmk9ERiwzFjufu_X-17" value="Оплата" style="whiteSpace=wrap;html=1;rounded=1;" vertex="1" parent="1">
          <mxGeometry x="560" y="80" width="120" height="60" as="geometry" />
        </mxCell>
        <mxCell id="IDwhgmk9ERiwzFjufu_X-22" value="Учет задолженности" style="whiteSpace=wrap;html=1;rounded=1;" vertex="1" parent="1">
          <mxGeometry x="560" y="220" width="120" height="60" as="geometry" />
        </mxCell>
      </root>
    </mxGraphModel>
  </diagram>
</mxfile>
